<svg xmlns="http://www.w3.org/2000/svg" xmlns:xlink="http://www.w3.org/1999/xlink" width="500" zoomAndPan="magnify" viewBox="0 0 375 374.999991" height="500" preserveAspectRatio="xMidYMid meet" version="1.0"><defs><g/><clipPath id="9b4aff82f6"><path d="M 10 120.535156 L 155 120.535156 L 155 254.785156 L 10 254.785156 Z M 10 120.535156 " clip-rule="nonzero"/></clipPath></defs><g clip-path="url(#9b4aff82f6)"><path fill="#2d43d6" d="M 18.863281 173.335938 L 18.863281 137.480469 C 18.863281 132.863281 22.660156 129.066406 27.277344 129.066406 L 53.660156 129.066406 C 62.664062 129.066406 61.273438 120.554688 54.246094 120.554688 L 27.277344 120.554688 C 17.945312 120.554688 10.332031 128.167969 10.332031 137.5 L 10.332031 210.792969 C 10.332031 220.128906 17.945312 227.742188 27.277344 227.742188 L 52.484375 227.742188 L 64.582031 245.921875 C 66.65625 249.054688 69.199219 253.867188 73.269531 254.4375 C 77.671875 255.042969 81.644531 250.367188 84.464844 247.546875 L 142.414062 191.300781 L 145.957031 210.539062 C 146.40625 213.003906 148.773438 214.648438 151.238281 214.199219 C 153.703125 213.75 155.347656 211.382812 154.898438 208.914062 L 149.96875 182.101562 C 149.730469 179.96875 148.011719 178.246094 145.796875 178.070312 L 117.910156 175.800781 C 115.40625 175.605469 113.214844 177.484375 113.019531 179.988281 C 112.820312 182.496094 114.699219 184.6875 117.207031 184.882812 L 135.289062 186.351562 L 78.457031 241.519531 C 77.769531 242.203125 75.832031 244.238281 74.484375 245.375 C 73.503906 244.082031 72.195312 241.949219 71.703125 241.207031 L 57.085938 219.230469 L 27.316406 219.230469 C 22.699219 219.230469 18.902344 215.433594 18.902344 210.8125 L 18.902344 173.375 Z M 18.863281 173.335938 " fill-opacity="1" fill-rule="evenodd"/></g><path fill="#ffde59" d="M 38.609375 178.425781 C 40.957031 178.425781 42.875 180.34375 42.875 182.691406 L 42.875 197.957031 C 42.875 200.304688 40.957031 202.222656 38.609375 202.222656 C 36.261719 202.222656 34.34375 200.304688 34.34375 197.957031 L 34.34375 182.691406 C 34.34375 180.34375 36.261719 178.425781 38.609375 178.425781 Z M 38.609375 178.425781 " fill-opacity="1" fill-rule="evenodd"/><path fill="#ffde59" d="M 58.691406 162.511719 C 61.039062 162.511719 62.957031 164.429688 62.957031 166.78125 L 62.957031 197.957031 C 62.957031 200.304688 61.039062 202.222656 58.691406 202.222656 C 56.339844 202.222656 54.421875 200.304688 54.421875 197.957031 L 54.421875 166.78125 C 54.421875 164.429688 56.339844 162.511719 58.691406 162.511719 Z M 58.691406 162.511719 " fill-opacity="1" fill-rule="evenodd"/><path fill="#ffde59" d="M 78.75 145.625 C 81.097656 145.625 83.015625 147.542969 83.015625 149.890625 L 83.015625 197.957031 C 83.015625 200.304688 81.097656 202.222656 78.75 202.222656 C 76.402344 202.222656 74.484375 200.304688 74.484375 197.957031 L 74.484375 149.890625 C 74.484375 147.542969 76.402344 145.625 78.75 145.625 Z M 78.75 145.625 " fill-opacity="1" fill-rule="evenodd"/><path fill="#ffde59" d="M 98.828125 133.726562 C 101.175781 133.726562 103.09375 135.644531 103.09375 137.992188 L 103.09375 197.957031 C 103.09375 200.304688 101.175781 202.222656 98.828125 202.222656 C 96.480469 202.222656 94.5625 200.304688 94.5625 197.957031 L 94.5625 137.992188 C 94.5625 135.644531 96.480469 133.726562 98.828125 133.726562 Z M 98.828125 133.726562 " fill-opacity="1" fill-rule="evenodd"/><g fill="#252525" fill-opacity="1"><g transform="translate(160.502425, 162.022363)"><g><path d="M 27.21875 -9.15625 C 29.84375 -7.957031 31.15625 -6.550781 31.15625 -4.9375 C 31.15625 -3.925781 30.726562 -3.039062 29.875 -2.28125 C 29.03125 -1.519531 27.976562 -0.945312 26.71875 -0.5625 C 25.457031 -0.1875 24.257812 0.0820312 23.125 0.25 C 21.988281 0.414062 20.957031 0.5 20.03125 0.5 C 17.757812 0.5 15.609375 0.203125 13.578125 -0.390625 C 11.546875 -0.992188 9.601562 -1.941406 7.75 -3.234375 C 5.90625 -4.535156 4.429688 -6.382812 3.328125 -8.78125 C 2.222656 -11.175781 1.671875 -13.988281 1.671875 -17.21875 C 1.671875 -22.75 3.3125 -27.078125 6.59375 -30.203125 C 9.875 -33.328125 14.328125 -34.890625 19.953125 -34.890625 C 22.972656 -34.890625 25.503906 -34.34375 27.546875 -33.25 C 29.597656 -32.164062 30.625 -30.828125 30.625 -29.234375 C 30.625 -28.023438 30.125 -27.039062 29.125 -26.28125 C 28.132812 -25.519531 26.804688 -25.035156 25.140625 -24.828125 C 24.546875 -26.421875 23.609375 -27.617188 22.328125 -28.421875 C 21.054688 -29.234375 19.695312 -29.640625 18.25 -29.640625 C 15.875 -29.640625 13.910156 -28.550781 12.359375 -26.375 C 10.816406 -24.195312 10.046875 -21.488281 10.046875 -18.25 C 10.046875 -14.414062 10.832031 -11.195312 12.40625 -8.59375 C 13.988281 -6 16.195312 -4.703125 19.03125 -4.703125 C 20.625 -4.703125 22.15625 -5.066406 23.625 -5.796875 C 25.09375 -6.523438 26.289062 -7.644531 27.21875 -9.15625 Z M 27.21875 -9.15625 "/></g></g></g><g fill="#252525" fill-opacity="1"><g transform="translate(193.105032, 162.022363)"><g><path d="M 25.34375 -6.171875 C 26.0625 -5.347656 26.960938 -4.9375 28.046875 -4.9375 C 28.503906 -4.9375 28.984375 -4.988281 29.484375 -5.09375 C 29.804688 -4.226562 29.96875 -3.453125 29.96875 -2.765625 C 29.96875 -1.578125 29.40625 -0.734375 28.28125 -0.234375 C 27.164062 0.253906 25.878906 0.5 24.421875 0.5 C 22.554688 0.5 21.046875 -0.078125 19.890625 -1.234375 C 17.710938 -3.453125 15.46875 -7.738281 13.15625 -14.09375 C 12.5 -14.332031 12.171875 -14.832031 12.171875 -15.59375 C 12.171875 -16.28125 12.367188 -17.082031 12.765625 -18 C 13.128906 -17.894531 13.570312 -17.84375 14.09375 -17.84375 C 15.613281 -17.84375 16.769531 -18.4375 17.5625 -19.625 C 18.363281 -20.820312 18.765625 -22.390625 18.765625 -24.328125 C 18.765625 -26.285156 18.265625 -27.648438 17.265625 -28.421875 C 16.265625 -29.203125 14.726562 -29.59375 12.65625 -29.59375 C 12.101562 -29.59375 11.445312 -29.554688 10.6875 -29.484375 C 10.78125 -28.109375 10.828125 -24.8125 10.828125 -19.59375 L 10.828125 -10.328125 C 10.828125 -6.410156 11.242188 -3.160156 12.078125 -0.578125 C 10.796875 -0.0859375 9.175781 0.15625 7.21875 0.15625 C 5.476562 0.15625 4.300781 -0.210938 3.6875 -0.953125 C 3.070312 -1.703125 2.765625 -2.816406 2.765625 -4.296875 C 2.765625 -4.859375 2.78125 -5.972656 2.8125 -7.640625 C 2.84375 -9.316406 2.859375 -10.757812 2.859375 -11.96875 L 2.859375 -22.359375 C 2.859375 -26.972656 2.648438 -30.945312 2.234375 -34.28125 C 5.203125 -34.6875 8.171875 -34.890625 11.140625 -34.890625 C 21.816406 -34.890625 27.15625 -31.273438 27.15625 -24.046875 C 27.15625 -19.359375 25.066406 -16.195312 20.890625 -14.5625 C 22.585938 -10.425781 24.070312 -7.628906 25.34375 -6.171875 Z M 25.34375 -6.171875 "/></g></g></g><g fill="#252525" fill-opacity="1"><g transform="translate(223.227005, 162.022363)"><g><path d="M 15.4375 -20.28125 C 16.65625 -22.132812 17.976562 -24.75 19.40625 -28.125 C 20.84375 -31.5 21.582031 -33.753906 21.625 -34.890625 C 26.601562 -34.378906 29.09375 -33.085938 29.09375 -31.015625 C 29.09375 -30.691406 28.976562 -30.265625 28.75 -29.734375 C 28.519531 -29.203125 28.15625 -28.539062 27.65625 -27.75 C 27.15625 -26.957031 26.679688 -26.222656 26.234375 -25.546875 C 25.785156 -24.867188 25.148438 -23.976562 24.328125 -22.875 C 23.515625 -21.769531 22.898438 -20.9375 22.484375 -20.375 C 22.078125 -19.820312 21.425781 -18.957031 20.53125 -17.78125 C 19.632812 -16.613281 19.078125 -15.882812 18.859375 -15.59375 L 18.859375 -10.53125 C 18.859375 -6.644531 19.28125 -3.328125 20.125 -0.578125 C 18.84375 -0.0859375 17.265625 0.15625 15.390625 0.15625 C 14.703125 0.15625 14.132812 0.113281 13.6875 0.03125 C 13.238281 -0.0507812 12.765625 -0.222656 12.265625 -0.484375 C 11.765625 -0.753906 11.390625 -1.207031 11.140625 -1.84375 C 10.898438 -2.488281 10.78125 -3.304688 10.78125 -4.296875 C 10.78125 -4.960938 10.796875 -6.203125 10.828125 -8.015625 C 10.867188 -9.828125 10.890625 -11.144531 10.890625 -11.96875 L 10.890625 -15.234375 C 5.835938 -24.734375 2.085938 -30.023438 -0.359375 -31.109375 C 1.398438 -33.492188 3.25 -34.6875 5.1875 -34.6875 C 7.113281 -34.6875 8.703125 -33.597656 9.953125 -31.421875 C 11.023438 -29.472656 12.851562 -25.757812 15.4375 -20.28125 Z M 15.4375 -20.28125 "/></g></g></g><g fill="#252525" fill-opacity="1"><g transform="translate(252.513663, 162.022363)"><g><path d="M 14.046875 -16.8125 C 15.535156 -16.8125 16.691406 -17.394531 17.515625 -18.5625 C 18.347656 -19.738281 18.765625 -21.332031 18.765625 -23.34375 C 18.765625 -25.71875 18.242188 -27.359375 17.203125 -28.265625 C 16.160156 -29.179688 14.550781 -29.640625 12.375 -29.640625 C 11.96875 -29.640625 11.421875 -29.570312 10.734375 -29.4375 C 10.867188 -27.851562 10.9375 -25.09375 10.9375 -21.15625 L 10.9375 -17.5625 C 12.050781 -17.0625 13.085938 -16.8125 14.046875 -16.8125 Z M 2.96875 -11.96875 L 2.96875 -22.359375 C 2.96875 -27.179688 2.722656 -31.15625 2.234375 -34.28125 C 5.203125 -34.6875 8.171875 -34.890625 11.140625 -34.890625 C 21.859375 -34.890625 27.21875 -31.15625 27.21875 -23.6875 C 27.21875 -20 26.132812 -17.082031 23.96875 -14.9375 C 21.8125 -12.789062 19.210938 -11.71875 16.171875 -11.71875 C 14.367188 -11.71875 12.625 -12.234375 10.9375 -13.265625 L 10.9375 -9.796875 C 10.9375 -6.265625 11.347656 -3.191406 12.171875 -0.578125 C 11.109375 -0.0859375 9.488281 0.15625 7.3125 0.15625 C 5.539062 0.15625 4.351562 -0.222656 3.75 -0.984375 C 3.15625 -1.742188 2.859375 -2.847656 2.859375 -4.296875 C 2.859375 -4.859375 2.875 -5.972656 2.90625 -7.640625 C 2.945312 -9.316406 2.96875 -10.757812 2.96875 -11.96875 Z M 2.96875 -11.96875 "/></g></g></g><g fill="#252525" fill-opacity="1"><g transform="translate(280.458755, 162.022363)"><g><path d="M 10.15625 -11.296875 L 10.15625 -20.890625 C 10.15625 -23.910156 10.101562 -26.660156 10 -29.140625 C 5.570312 -29.140625 2.320312 -29.035156 0.25 -28.828125 C 0.0820312 -29.335938 0 -30.179688 0 -31.359375 C 0 -32.023438 0.117188 -32.5625 0.359375 -32.96875 C 0.609375 -33.382812 1 -33.679688 1.53125 -33.859375 C 2.0625 -34.035156 2.570312 -34.148438 3.0625 -34.203125 C 3.550781 -34.253906 4.207031 -34.28125 5.03125 -34.28125 L 16.171875 -34.28125 C 21.984375 -34.28125 25.925781 -34.347656 28 -34.484375 C 28.164062 -33.722656 28.25 -32.925781 28.25 -32.09375 C 28.25 -30.125 26.941406 -29.140625 24.328125 -29.140625 L 18.40625 -29.140625 C 18.238281 -25.847656 18.15625 -22.648438 18.15625 -19.546875 L 18.15625 -9.84375 C 18.15625 -6.351562 18.566406 -3.265625 19.390625 -0.578125 C 17.867188 -0.0859375 16.207031 0.15625 14.40625 0.15625 C 12.75 0.15625 11.609375 -0.210938 10.984375 -0.953125 C 10.359375 -1.703125 10.046875 -2.816406 10.046875 -4.296875 C 10.046875 -4.828125 10.0625 -5.847656 10.09375 -7.359375 C 10.132812 -8.878906 10.15625 -10.191406 10.15625 -11.296875 Z M 10.15625 -11.296875 "/></g></g></g><g fill="#252525" fill-opacity="1"><g transform="translate(308.707597, 162.022363)"><g><path d="M 18.8125 0.5 C 13.59375 0.5 9.429688 -1.097656 6.328125 -4.296875 C 3.222656 -7.503906 1.671875 -11.789062 1.671875 -17.15625 C 1.671875 -22.570312 3.210938 -26.878906 6.296875 -30.078125 C 9.390625 -33.285156 13.5625 -34.890625 18.8125 -34.890625 C 24.101562 -34.890625 28.300781 -33.285156 31.40625 -30.078125 C 34.519531 -26.878906 36.078125 -22.570312 36.078125 -17.15625 C 36.078125 -11.789062 34.515625 -7.503906 31.390625 -4.296875 C 28.265625 -1.097656 24.070312 0.5 18.8125 0.5 Z M 27.59375 -16.21875 C 27.59375 -18.5 27.320312 -20.609375 26.78125 -22.546875 C 26.238281 -24.492188 25.285156 -26.160156 23.921875 -27.546875 C 22.554688 -28.941406 20.867188 -29.640625 18.859375 -29.640625 C 16.171875 -29.640625 14.03125 -28.625 12.4375 -26.59375 C 10.84375 -24.5625 10.046875 -21.953125 10.046875 -18.765625 C 10.046875 -16.347656 10.316406 -14.125 10.859375 -12.09375 C 11.398438 -10.070312 12.351562 -8.332031 13.71875 -6.875 C 15.082031 -5.425781 16.765625 -4.703125 18.765625 -4.703125 C 21.554688 -4.703125 23.722656 -5.765625 25.265625 -7.890625 C 26.816406 -10.023438 27.59375 -12.800781 27.59375 -16.21875 Z M 27.59375 -16.21875 "/></g></g></g><g fill="#252525" fill-opacity="1"><g transform="translate(346.448658, 162.022363)"><g><path d="M 14.40625 -13.953125 C 14.40625 -12.898438 14.050781 -12.066406 13.34375 -11.453125 C 12.632812 -10.835938 11.695312 -10.53125 10.53125 -10.53125 C 10.144531 -10.53125 9.445312 -10.585938 8.4375 -10.703125 C 7.4375 -10.828125 6.664062 -10.890625 6.125 -10.890625 C 4.8125 -10.890625 3.328125 -10.609375 1.671875 -10.046875 C 1.421875 -11.265625 1.296875 -12.253906 1.296875 -13.015625 C 1.296875 -13.941406 1.609375 -14.738281 2.234375 -15.40625 C 2.859375 -16.082031 3.84375 -16.421875 5.1875 -16.421875 C 5.394531 -16.421875 6 -16.367188 7 -16.265625 C 8 -16.171875 8.796875 -16.125 9.390625 -16.125 L 9.796875 -16.125 C 11.285156 -16.125 12.632812 -16.382812 13.84375 -16.90625 C 14.21875 -15.863281 14.40625 -14.878906 14.40625 -13.953125 Z M 14.40625 -13.953125 "/></g></g></g><g fill="#252525" fill-opacity="1"><g transform="translate(160.502425, 233.978706)"><g><path d="M 25.34375 -6.171875 C 26.0625 -5.347656 26.960938 -4.9375 28.046875 -4.9375 C 28.503906 -4.9375 28.984375 -4.988281 29.484375 -5.09375 C 29.804688 -4.226562 29.96875 -3.453125 29.96875 -2.765625 C 29.96875 -1.578125 29.40625 -0.734375 28.28125 -0.234375 C 27.164062 0.253906 25.878906 0.5 24.421875 0.5 C 22.554688 0.5 21.046875 -0.078125 19.890625 -1.234375 C 17.710938 -3.453125 15.46875 -7.738281 13.15625 -14.09375 C 12.5 -14.332031 12.171875 -14.832031 12.171875 -15.59375 C 12.171875 -16.28125 12.367188 -17.082031 12.765625 -18 C 13.128906 -17.894531 13.570312 -17.84375 14.09375 -17.84375 C 15.613281 -17.84375 16.769531 -18.4375 17.5625 -19.625 C 18.363281 -20.820312 18.765625 -22.390625 18.765625 -24.328125 C 18.765625 -26.285156 18.265625 -27.648438 17.265625 -28.421875 C 16.265625 -29.203125 14.726562 -29.59375 12.65625 -29.59375 C 12.101562 -29.59375 11.445312 -29.554688 10.6875 -29.484375 C 10.78125 -28.109375 10.828125 -24.8125 10.828125 -19.59375 L 10.828125 -10.328125 C 10.828125 -6.410156 11.242188 -3.160156 12.078125 -0.578125 C 10.796875 -0.0859375 9.175781 0.15625 7.21875 0.15625 C 5.476562 0.15625 4.300781 -0.210938 3.6875 -0.953125 C 3.070312 -1.703125 2.765625 -2.816406 2.765625 -4.296875 C 2.765625 -4.859375 2.78125 -5.972656 2.8125 -7.640625 C 2.84375 -9.316406 2.859375 -10.757812 2.859375 -11.96875 L 2.859375 -22.359375 C 2.859375 -26.972656 2.648438 -30.945312 2.234375 -34.28125 C 5.203125 -34.6875 8.171875 -34.890625 11.140625 -34.890625 C 21.816406 -34.890625 27.15625 -31.273438 27.15625 -24.046875 C 27.15625 -19.359375 25.066406 -16.195312 20.890625 -14.5625 C 22.585938 -10.425781 24.070312 -7.628906 25.34375 -6.171875 Z M 25.34375 -6.171875 "/></g></g></g><g fill="#252525" fill-opacity="1"><g transform="translate(190.624399, 233.978706)"><g><path d="M 2.6875 -11.96875 L 2.6875 -22.359375 C 2.6875 -26.148438 2.535156 -30.070312 2.234375 -34.125 C 3.546875 -34.394531 4.910156 -34.53125 6.328125 -34.53125 C 7.640625 -34.53125 8.75 -34.296875 9.65625 -33.828125 C 10.570312 -33.367188 11.03125 -32.648438 11.03125 -31.671875 C 11.03125 -31.503906 10.972656 -30.113281 10.859375 -27.5 C 10.742188 -24.894531 10.6875 -22.707031 10.6875 -20.9375 L 10.6875 -10.53125 C 10.6875 -6.644531 11.097656 -3.328125 11.921875 -0.578125 C 10.640625 -0.0859375 9.070312 0.15625 7.21875 0.15625 C 6.519531 0.15625 5.941406 0.113281 5.484375 0.03125 C 5.035156 -0.0507812 4.5625 -0.222656 4.0625 -0.484375 C 3.5625 -0.753906 3.1875 -1.207031 2.9375 -1.84375 C 2.695312 -2.488281 2.578125 -3.304688 2.578125 -4.296875 C 2.578125 -4.960938 2.59375 -6.203125 2.625 -8.015625 C 2.664062 -9.828125 2.6875 -11.144531 2.6875 -11.96875 Z M 2.6875 -11.96875 "/></g></g></g><g fill="#252525" fill-opacity="1"><g transform="translate(203.989442, 233.978706)"><g><path d="M 21.71875 -25.828125 C 21.164062 -26.816406 20.144531 -27.679688 18.65625 -28.421875 C 17.164062 -29.171875 15.734375 -29.546875 14.359375 -29.546875 C 13.222656 -29.546875 12.300781 -29.242188 11.59375 -28.640625 C 10.882812 -28.046875 10.53125 -27.125 10.53125 -25.875 C 10.53125 -24.757812 10.9375 -23.820312 11.75 -23.0625 C 12.5625 -22.300781 13.5625 -21.738281 14.75 -21.375 C 15.9375 -21.007812 17.238281 -20.550781 18.65625 -20 C 20.070312 -19.457031 21.378906 -18.875 22.578125 -18.25 C 23.773438 -17.625 24.78125 -16.648438 25.59375 -15.328125 C 26.40625 -14.015625 26.8125 -12.429688 26.8125 -10.578125 C 26.8125 -8.535156 26.421875 -6.769531 25.640625 -5.28125 C 24.867188 -3.800781 23.804688 -2.65625 22.453125 -1.84375 C 21.097656 -1.039062 19.65625 -0.445312 18.125 -0.0625 C 16.59375 0.3125 14.9375 0.5 13.15625 0.5 C 9.988281 0.5 7.253906 0.0546875 4.953125 -0.828125 C 2.648438 -1.722656 1.5 -2.898438 1.5 -4.359375 C 1.5 -5.429688 1.789062 -6.289062 2.375 -6.9375 C 2.96875 -7.59375 3.972656 -8.300781 5.390625 -9.0625 C 6.253906 -7.863281 7.550781 -6.851562 9.28125 -6.03125 C 11.007812 -5.21875 12.679688 -4.8125 14.296875 -4.8125 C 15.679688 -4.8125 16.804688 -5.140625 17.671875 -5.796875 C 18.546875 -6.453125 18.984375 -7.472656 18.984375 -8.859375 C 18.984375 -10.171875 18.414062 -11.222656 17.28125 -12.015625 C 16.15625 -12.816406 14.796875 -13.460938 13.203125 -13.953125 C 11.617188 -14.441406 10.035156 -15.019531 8.453125 -15.6875 C 6.867188 -16.351562 5.507812 -17.460938 4.375 -19.015625 C 3.25 -20.578125 2.6875 -22.582031 2.6875 -25.03125 C 2.6875 -26.800781 3.066406 -28.34375 3.828125 -29.65625 C 4.597656 -30.96875 5.628906 -31.992188 6.921875 -32.734375 C 8.210938 -33.472656 9.625 -34.015625 11.15625 -34.359375 C 12.695312 -34.710938 14.367188 -34.890625 16.171875 -34.890625 C 19.003906 -34.890625 21.441406 -34.472656 23.484375 -33.640625 C 25.535156 -32.816406 26.5625 -31.660156 26.5625 -30.171875 C 26.5625 -29.273438 26.132812 -28.425781 25.28125 -27.625 C 24.425781 -26.820312 23.238281 -26.222656 21.71875 -25.828125 Z M 21.71875 -25.828125 "/></g></g></g><g fill="#252525" fill-opacity="1"><g transform="translate(232.339535, 233.978706)"><g><path d="M 2.6875 -11.96875 L 2.6875 -22.359375 C 2.6875 -26.148438 2.535156 -30.070312 2.234375 -34.125 C 3.546875 -34.394531 4.910156 -34.53125 6.328125 -34.53125 C 7.640625 -34.53125 8.75 -34.296875 9.65625 -33.828125 C 10.570312 -33.367188 11.03125 -32.648438 11.03125 -31.671875 C 11.03125 -31.503906 10.972656 -30.113281 10.859375 -27.5 C 10.742188 -24.894531 10.6875 -22.707031 10.6875 -20.9375 L 10.6875 -10.53125 C 10.6875 -6.644531 11.097656 -3.328125 11.921875 -0.578125 C 10.640625 -0.0859375 9.070312 0.15625 7.21875 0.15625 C 6.519531 0.15625 5.941406 0.113281 5.484375 0.03125 C 5.035156 -0.0507812 4.5625 -0.222656 4.0625 -0.484375 C 3.5625 -0.753906 3.1875 -1.207031 2.9375 -1.84375 C 2.695312 -2.488281 2.578125 -3.304688 2.578125 -4.296875 C 2.578125 -4.960938 2.59375 -6.203125 2.625 -8.015625 C 2.664062 -9.828125 2.6875 -11.144531 2.6875 -11.96875 Z M 2.6875 -11.96875 "/></g></g></g><g fill="#252525" fill-opacity="1"><g transform="translate(245.704579, 233.978706)"><g><path d="M 31.515625 -0.203125 C 30.421875 0.0351562 29.347656 0.15625 28.296875 0.15625 C 25.359375 0.15625 23.378906 -0.65625 22.359375 -2.28125 C 21.003906 -4.382812 19.457031 -6.972656 17.71875 -10.046875 C 14.550781 -15.753906 12.1875 -19.859375 10.625 -22.359375 L 10.625 -10.53125 C 10.625 -6.144531 10.988281 -2.800781 11.71875 -0.5 C 10.707031 -0.0625 9.410156 0.15625 7.828125 0.15625 C 6.097656 0.15625 4.867188 -0.09375 4.140625 -0.59375 C 3.421875 -1.09375 3.0625 -2.035156 3.0625 -3.421875 C 3.0625 -3.972656 3.085938 -5.234375 3.140625 -7.203125 C 3.191406 -9.171875 3.21875 -10.757812 3.21875 -11.96875 L 3.21875 -22.359375 C 3.21875 -27.910156 2.890625 -31.738281 2.234375 -33.84375 C 3.878906 -34.332031 5.378906 -34.578125 6.734375 -34.578125 C 9.234375 -34.578125 11.097656 -33.816406 12.328125 -32.296875 C 14.859375 -29.160156 18.644531 -23.144531 23.6875 -14.25 L 23.640625 -22.359375 C 23.640625 -27.078125 23.523438 -31.015625 23.296875 -34.171875 C 24.742188 -34.410156 25.8125 -34.53125 26.5 -34.53125 C 29.875 -34.53125 31.5625 -33.523438 31.5625 -31.515625 C 31.5625 -31.378906 31.492188 -29.914062 31.359375 -27.125 C 31.222656 -24.34375 31.15625 -22.28125 31.15625 -20.9375 L 31.15625 -12.078125 C 31.15625 -7.316406 31.273438 -3.359375 31.515625 -0.203125 Z M 31.515625 -0.203125 "/></g></g></g><g fill="#252525" fill-opacity="1"><g transform="translate(280.079067, 233.978706)"><g><path d="M 31.421875 -4.765625 C 31.421875 -3.304688 30.332031 -2.0625 28.15625 -1.03125 C 25.976562 -0.0078125 23.207031 0.5 19.84375 0.5 C 14.289062 0.5 9.875 -1.066406 6.59375 -4.203125 C 3.3125 -7.335938 1.671875 -11.675781 1.671875 -17.21875 C 1.671875 -22.75 3.3125 -27.078125 6.59375 -30.203125 C 9.875 -33.328125 14.328125 -34.890625 19.953125 -34.890625 C 22.972656 -34.890625 25.503906 -34.34375 27.546875 -33.25 C 29.597656 -32.164062 30.625 -30.828125 30.625 -29.234375 C 30.625 -28.054688 30.132812 -27.078125 29.15625 -26.296875 C 28.175781 -25.523438 26.835938 -25.035156 25.140625 -24.828125 C 24.546875 -26.421875 23.601562 -27.617188 22.3125 -28.421875 C 21.019531 -29.234375 19.664062 -29.640625 18.25 -29.640625 C 15.96875 -29.640625 14.03125 -28.570312 12.4375 -26.4375 C 10.84375 -24.300781 10.046875 -21.570312 10.046875 -18.25 C 10.046875 -14.414062 10.832031 -11.195312 12.40625 -8.59375 C 13.988281 -6 16.179688 -4.703125 18.984375 -4.703125 C 21.296875 -4.703125 22.914062 -5.363281 23.84375 -6.6875 C 23.8125 -9.65625 23.675781 -12.539062 23.4375 -15.34375 C 24.789062 -15.625 25.929688 -15.765625 26.859375 -15.765625 C 30.097656 -15.765625 31.71875 -14.765625 31.71875 -12.765625 C 31.71875 -12.660156 31.664062 -11.65625 31.5625 -9.75 C 31.46875 -7.84375 31.421875 -6.179688 31.421875 -4.765625 Z M 31.421875 -4.765625 "/></g></g></g></svg>