<?xml version="1.0" standalone="no"?>
<!DOCTYPE svg PUBLIC "-//W3C//DTD SVG 20010904//EN"
 "http://www.w3.org/TR/2001/REC-SVG-20010904/DTD/svg10.dtd">
<svg version="1.0" xmlns="http://www.w3.org/2000/svg"
 width="1280.000000pt" height="720.000000pt" viewBox="0 0 1280.000000 720.000000"
 preserveAspectRatio="xMidYMid meet">
<metadata>
Created by potrace 1.16, written by Peter Selinger 2001-2019
</metadata>
<g transform="translate(0.000000,720.000000) scale(0.100000,-0.100000)"
fill="#000000" stroke="none">
<path d="M802 5875 c-122 -27 -252 -108 -326 -202 -51 -65 -102 -175 -116
-248 -8 -43 -10 -439 -8 -1405 l3 -1345 23 -62 c65 -174 191 -295 379 -366 56
-21 74 -21 544 -25 l486 -3 266 -398 c326 -488 357 -520 491 -509 69 6 130 36
210 106 36 31 525 504 1086 1050 561 546 1020 989 1020 985 0 -4 27 -156 61
-338 67 -363 74 -385 143 -416 55 -25 94 -24 146 4 52 27 80 75 80 138 0 49
-164 954 -180 991 -13 32 -30 51 -63 73 -23 15 -96 24 -425 51 -561 47 -640
51 -682 30 -77 -36 -109 -131 -71 -210 40 -82 51 -85 389 -112 163 -13 308
-25 321 -26 21 -3 -110 -134 -810 -812 -459 -445 -920 -895 -1026 -999 -105
-104 -195 -187 -201 -183 -5 3 -139 201 -298 440 l-289 435 -545 3 -545 3 -47
23 c-66 33 -134 111 -153 176 -13 46 -15 218 -13 1357 l3 1304 30 54 c36 65
83 105 153 131 50 19 79 20 551 20 559 0 574 2 630 65 58 66 31 168 -56 211
-36 18 -70 19 -568 21 -420 1 -543 -1 -593 -12z"/>
<path d="M6075 5659 c-266 -21 -449 -164 -521 -404 -25 -84 -25 -304 0 -395
67 -245 270 -394 557 -408 171 -8 309 24 381 88 82 71 73 150 -25 215 l-54 36
-59 -58 c-70 -69 -129 -93 -224 -93 -133 1 -216 76 -276 250 -15 44 -19 84
-19 195 0 138 1 141 33 210 38 80 79 128 137 157 47 24 122 28 179 9 47 -16
119 -80 136 -122 11 -27 16 -29 44 -24 173 35 221 187 88 275 -89 59 -217 82
-377 69z"/>
<path d="M6816 5658 c-77 -4 -143 -11 -147 -15 -4 -5 -3 -44 1 -88 5 -44 9
-284 9 -532 1 -507 2 -517 66 -547 39 -19 141 -21 215 -5 46 10 51 13 45 33
-26 88 -34 207 -38 574 l-4 392 71 0 c139 -1 190 -48 190 -176 -1 -129 -59
-208 -154 -208 -49 0 -50 -1 -60 -35 -14 -51 -12 -69 8 -89 10 -10 33 -56 51
-102 82 -210 178 -356 255 -391 47 -21 135 -25 202 -8 78 20 113 88 84 164 -9
23 -14 26 -36 21 -40 -10 -90 11 -122 52 -33 41 -132 234 -132 256 0 7 14 19
31 26 45 19 117 94 142 148 19 40 22 65 22 162 0 105 -2 119 -27 166 -87 165
-284 224 -672 202z"/>
<path d="M8350 5649 c0 -30 -60 -190 -116 -309 -91 -191 -72 -194 -179 26 -51
104 -105 204 -121 223 -32 39 -95 71 -139 71 -45 0 -109 -33 -155 -81 l-41
-43 45 -38 c74 -63 173 -207 296 -429 l52 -92 -6 -201 c-7 -222 -2 -254 47
-290 35 -26 139 -33 221 -16 l58 12 -7 31 c-26 124 -34 200 -35 334 l0 153
104 137 c131 175 223 314 237 361 25 87 -35 134 -203 160 -52 8 -58 7 -58 -9z"/>
<path d="M8846 5658 c-76 -4 -143 -11 -147 -15 -5 -5 -4 -44 2 -89 7 -48 12
-259 13 -544 1 -326 5 -471 13 -485 25 -45 51 -58 126 -63 70 -4 187 12 187
26 0 4 -7 32 -16 62 -9 32 -18 119 -21 207 l-6 152 53 -20 c60 -23 163 -27
231 -9 87 23 185 104 227 187 50 99 56 285 12 378 -83 172 -279 234 -674 213z
m323 -210 c59 -29 80 -76 81 -183 0 -64 -5 -90 -22 -125 -40 -78 -114 -108
-197 -79 l-31 11 0 131 c0 73 -3 162 -6 199 -6 59 -5 67 12 71 33 9 118 -4
163 -25z"/>
<path d="M11099 5659 c-202 -17 -361 -122 -443 -294 -50 -103 -61 -162 -61
-315 0 -154 21 -242 80 -341 44 -71 136 -159 204 -193 130 -66 324 -85 475
-46 269 69 416 275 416 585 0 196 -53 340 -164 450 -124 123 -286 172 -507
154z m147 -194 c148 -44 231 -216 221 -460 -5 -152 -28 -217 -102 -291 -59
-60 -113 -78 -207 -72 -80 5 -134 39 -187 119 -58 86 -76 167 -76 334 0 132 2
143 28 200 68 145 190 210 323 170z"/>
<path d="M9915 5640 c-307 -5 -329 -9 -340 -53 -4 -13 -5 -48 -3 -78 l3 -54
168 4 167 4 0 -439 c0 -260 4 -454 10 -475 16 -57 50 -82 122 -87 34 -3 92 1
130 8 68 12 70 13 63 39 -29 111 -34 192 -35 541 0 201 3 375 6 388 6 21 10
22 125 22 180 0 213 20 207 128 l-3 57 -165 0 c-91 1 -295 -2 -455 -5z"/>
<path d="M12255 5039 c-16 -6 -91 -10 -167 -9 -75 0 -147 -4 -160 -9 -42 -16
-60 -56 -59 -129 0 -36 4 -69 9 -74 4 -4 39 -1 77 7 52 10 91 12 153 6 103
-11 149 -1 185 39 22 24 27 40 27 80 0 50 -14 101 -27 99 -5 0 -21 -5 -38 -10z"/>
<path d="M5641 3199 c-47 -5 -86 -11 -88 -13 -2 -1 1 -54 7 -117 5 -63 10
-307 10 -544 0 -408 1 -432 20 -462 10 -17 29 -37 42 -44 29 -16 181 -16 229
0 l36 12 -14 51 c-24 94 -33 258 -33 602 l0 339 74 -5 c139 -9 186 -56 186
-183 -1 -126 -50 -195 -146 -203 -48 -4 -57 -8 -65 -29 -15 -39 -10 -85 10
-107 11 -12 34 -57 51 -101 48 -123 127 -267 177 -324 36 -41 55 -54 100 -67
66 -19 144 -13 209 15 50 23 69 65 56 127 -8 38 -9 39 -57 44 -28 3 -60 11
-71 18 -31 16 -91 111 -135 211 l-38 85 48 27 c57 33 107 87 135 148 31 68 30
235 -2 307 -44 97 -153 173 -292 204 -72 16 -342 21 -449 9z"/>
<path d="M7382 3200 c-72 -13 -158 -45 -204 -75 -156 -103 -171 -375 -29 -513
47 -46 85 -65 231 -117 138 -49 193 -84 214 -136 31 -77 -8 -146 -97 -170 -82
-22 -222 24 -309 101 l-45 39 -47 -29 c-112 -72 -116 -184 -8 -243 78 -42 171
-60 317 -61 108 -1 142 3 200 21 189 61 275 170 275 352 0 87 -16 140 -58 197
-43 57 -135 108 -293 162 -163 56 -204 95 -196 186 5 57 36 90 93 100 67 13
180 -29 244 -90 34 -33 37 -33 75 -21 22 6 59 30 82 53 38 36 43 46 43 85 0
25 -7 55 -16 67 -19 27 -81 60 -149 79 -63 17 -254 25 -323 13z"/>
<path d="M10085 3195 c-234 -43 -392 -186 -452 -407 -24 -87 -23 -289 1 -378
54 -200 199 -342 401 -395 229 -59 531 -1 589 113 17 35 29 334 14 368 -18 39
-73 58 -169 58 -47 -1 -91 -4 -99 -9 -10 -6 -11 -39 -5 -154 6 -135 5 -148
-12 -163 -48 -44 -137 -59 -215 -38 -86 24 -164 120 -205 250 -25 79 -25 285
0 360 22 68 74 141 128 180 101 73 259 36 327 -75 32 -53 53 -56 129 -20 105
48 124 156 41 231 -88 81 -287 114 -473 79z"/>
<path d="M6630 3192 l-44 -7 3 -540 c3 -584 3 -586 57 -622 23 -14 46 -18 119
-16 101 2 151 13 149 34 -1 8 -9 55 -19 104 -14 76 -16 158 -14 535 1 245 -1
453 -5 462 -18 40 -141 65 -246 50z"/>
<path d="M8050 3191 c-44 -6 -45 -7 -42 -41 1 -19 4 -264 6 -545 3 -322 8
-520 15 -537 20 -53 111 -77 226 -58 39 6 73 15 78 19 4 4 -1 41 -10 82 -16
65 -18 129 -18 550 0 388 -3 479 -14 492 -30 37 -131 53 -241 38z"/>
<path d="M8512 3189 l-54 -11 6 -34 c20 -106 26 -243 26 -635 0 -423 1 -437
20 -462 29 -37 113 -53 203 -39 38 6 71 13 74 16 3 3 1 25 -6 48 -17 65 -32
343 -29 525 l3 163 149 -263 c207 -362 252 -433 291 -457 46 -29 138 -43 208
-33 l57 8 1 550 c0 303 0 555 0 562 -3 45 -106 78 -213 67 l-67 -6 6 -332 5
-331 -116 193 c-190 317 -266 421 -328 453 -48 25 -158 33 -236 18z"/>
</g>
</svg>
