<svg xmlns="http://www.w3.org/2000/svg" xmlns:xlink="http://www.w3.org/1999/xlink" width="500" zoomAndPan="magnify" viewBox="0 0 375 374.999991" height="500" preserveAspectRatio="xMidYMid meet" version="1.0"><defs><clipPath id="4cca469891"><path d="M 5 13.570312 L 370 13.570312 L 370 350.320312 L 5 350.320312 Z M 5 13.570312 " clip-rule="nonzero"/></clipPath></defs><g clip-path="url(#4cca469891)"><path fill="#2d43d6" d="M 27.269531 146.21875 L 27.269531 56.148438 C 27.269531 44.546875 36.808594 35.007812 48.410156 35.007812 L 114.683594 35.007812 C 137.300781 35.007812 133.808594 13.621094 116.160156 13.621094 L 48.410156 13.621094 C 24.957031 13.621094 5.832031 32.746094 5.832031 56.195312 L 5.832031 240.320312 C 5.832031 263.769531 24.957031 282.894531 48.410156 282.894531 L 111.734375 282.894531 L 142.117188 328.570312 C 147.328125 336.433594 153.722656 348.53125 163.945312 349.957031 C 175.007812 351.480469 184.988281 339.730469 192.070312 332.648438 L 337.644531 191.351562 L 346.542969 239.679688 C 347.675781 245.875 353.625 250.003906 359.820312 248.875 C 366.015625 247.742188 370.144531 241.792969 369.011719 235.597656 L 356.625 168.242188 C 356.035156 162.882812 351.707031 158.558594 346.152344 158.117188 L 276.09375 152.414062 C 269.796875 151.921875 264.292969 156.640625 263.800781 162.933594 C 263.308594 169.226562 268.027344 174.734375 274.320312 175.222656 L 319.75 178.910156 L 176.976562 317.507812 C 175.253906 319.226562 170.386719 324.339844 166.996094 327.191406 C 164.539062 323.949219 161.242188 318.589844 160.015625 316.71875 L 123.289062 261.507812 L 48.507812 261.507812 C 36.90625 261.507812 27.367188 251.96875 27.367188 240.367188 L 27.367188 146.316406 Z M 27.269531 146.21875 " fill-opacity="1" fill-rule="evenodd"/></g><path fill="#ffde59" d="M 76.875 159 C 82.777344 159 87.59375 163.816406 87.59375 169.71875 L 87.59375 208.066406 C 87.59375 213.964844 82.777344 218.785156 76.875 218.785156 C 70.976562 218.785156 66.160156 213.964844 66.160156 208.066406 L 66.160156 169.71875 C 66.160156 163.820312 70.976562 159 76.875 159 Z M 76.875 159 " fill-opacity="1" fill-rule="evenodd"/><path fill="#ffde59" d="M 127.320312 119.03125 C 133.21875 119.03125 138.039062 123.847656 138.039062 129.746094 L 138.039062 208.066406 C 138.039062 213.964844 133.21875 218.785156 127.320312 218.785156 C 121.417969 218.785156 116.601562 213.964844 116.601562 208.066406 L 116.601562 129.746094 C 116.601562 123.847656 121.417969 119.03125 127.320312 119.03125 Z M 127.320312 119.03125 " fill-opacity="1" fill-rule="evenodd"/><path fill="#ffde59" d="M 177.714844 76.601562 C 183.613281 76.601562 188.429688 81.417969 188.429688 87.316406 L 188.429688 208.066406 C 188.429688 213.964844 183.613281 218.785156 177.714844 218.785156 C 171.8125 218.785156 166.996094 213.964844 166.996094 208.066406 L 166.996094 87.316406 C 166.996094 81.417969 171.8125 76.601562 177.714844 76.601562 Z M 177.714844 76.601562 " fill-opacity="1" fill-rule="evenodd"/><path fill="#ffde59" d="M 228.15625 46.707031 C 234.054688 46.707031 238.875 51.527344 238.875 57.425781 L 238.875 208.066406 C 238.875 213.964844 234.054688 218.785156 228.15625 218.785156 C 222.257812 218.785156 217.4375 213.964844 217.4375 208.066406 L 217.4375 57.425781 C 217.4375 51.527344 222.257812 46.707031 228.15625 46.707031 Z M 228.15625 46.707031 " fill-opacity="1" fill-rule="evenodd"/></svg>